<?xml version="1.0" standalone="no"?>
<!DOCTYPE svg PUBLIC "-//W3C//DTD SVG 20010904//EN"
 "http://www.w3.org/TR/2001/REC-SVG-20010904/DTD/svg10.dtd">
<svg version="1.0" xmlns="http://www.w3.org/2000/svg"
 width="500.000000pt" height="500.000000pt" viewBox="0 0 500.000000 500.000000"
 preserveAspectRatio="xMidYMid meet">

<g transform="translate(0.000000,500.000000) scale(0.100000,-0.100000)"
fill="#000000" stroke="none">
<path d="M3691 4634 c-40 -36 -51 -52 -51 -76 0 -23 4 -29 16 -24 9 3 18 6 20
6 2 0 4 6 4 13 0 13 73 77 87 77 12 0 43 -54 43 -75 0 -9 -16 -23 -37 -32 -62
-26 -83 -51 -83 -105 0 -33 5 -50 16 -56 14 -8 13 -14 -9 -58 -14 -27 -44 -74
-66 -104 -65 -87 -67 -94 -46 -139 22 -51 15 -90 -30 -166 -40 -66 -43 -85
-15 -85 53 0 122 171 102 251 -11 42 -10 44 36 108 58 80 81 127 82 163 0 16
8 31 19 37 35 19 116 33 182 32 l67 -2 4 48 c7 89 -18 110 -118 100 -46 -5
-54 -3 -54 11 -1 23 -38 105 -53 114 -30 19 -66 7 -116 -38z m276 -154 c29
-22 23 -27 -45 -32 -33 -3 -43 0 -48 14 -3 10 -2 22 1 28 10 17 65 11 92 -10z
m-140 -16 c8 -21 -5 -30 -50 -38 l-39 -7 19 25 c16 22 30 31 56 35 4 0 10 -6
14 -15z"/>
<path d="M3425 4471 c-27 -10 -86 -30 -130 -45 -91 -31 -125 -50 -125 -71 0
-23 19 -28 46 -11 13 9 73 33 132 53 140 46 182 65 182 80 0 18 -45 15 -105
-6z"/>
<path d="M3863 4362 c-7 -5 -13 -40 -15 -82 l-3 -74 -33 -8 c-47 -13 -35 -30
32 -46 32 -8 60 -21 63 -28 3 -7 -11 -30 -31 -51 -39 -41 -47 -73 -18 -73 11
0 23 -13 31 -35 14 -39 55 -76 77 -68 21 8 17 23 -16 67 -35 47 -37 60 -9 105
30 49 23 92 -18 111 l-33 15 0 82 c0 81 -5 98 -27 85z"/>
<path d="M2869 4224 c-121 -81 -139 -97 -139 -126 0 -24 35 -24 52 0 7 10 49
41 93 70 128 82 155 102 155 118 0 30 -50 11 -161 -62z"/>
<path d="M791 4238 c-26 -28 -31 -41 -31 -86 0 -65 21 -182 66 -366 19 -80 30
-144 25 -150 -15 -19 -19 -139 -5 -177 7 -20 29 -62 50 -93 35 -53 37 -61 35
-125 -2 -61 0 -69 18 -74 17 -4 21 1 27 32 3 20 8 43 11 51 11 28 2 50 -53
131 -45 68 -54 88 -54 126 0 25 7 61 17 80 15 33 15 38 -10 116 -27 84 -71
289 -82 388 -6 51 -5 58 21 88 21 25 32 31 50 27 19 -5 24 -2 24 13 0 38 -11
51 -46 51 -24 0 -41 -8 -63 -32z"/>
<path d="M917 4234 c-22 -22 6 -59 39 -53 26 4 47 -5 93 -41 28 -22 55 -40 61
-40 21 0 8 46 -19 67 -57 45 -157 83 -174 67z"/>
<path d="M1196 4103 c-3 -3 -6 -14 -6 -23 0 -13 14 -21 53 -29 28 -7 63 -15
75 -18 19 -5 23 -2 20 12 -1 10 -10 21 -18 25 -57 28 -113 43 -124 33z"/>
<path d="M2465 4073 c-74 -17 -96 -25 -110 -39 -34 -34 14 -46 68 -17 23 12
57 17 117 17 78 1 85 3 85 21 0 18 -7 20 -70 22 -38 0 -79 -1 -90 -4z"/>
<path d="M1472 4062 c-22 -7 -13 -42 11 -43 120 -3 175 -11 221 -33 l51 -24
-101 0 c-140 0 -214 -25 -198 -66 8 -20 36 -20 89 -2 80 28 256 16 439 -30 64
-16 66 -17 50 -35 -27 -30 -11 -52 32 -44 65 12 91 43 66 82 -10 17 -81 41
-142 49 -28 4 -50 10 -50 14 0 16 96 40 187 46 83 6 95 5 128 -15 50 -29 75
-28 75 4 0 39 -43 55 -152 55 -157 -1 -214 -14 -340 -78 -5 -2 -12 8 -18 22
-13 36 -62 63 -145 80 -72 15 -183 25 -203 18z"/>
<path d="M2810 3990 c0 -25 4 -30 25 -30 26 0 112 -39 137 -62 38 -35 171
-119 185 -116 48 9 13 55 -99 130 -113 76 -177 108 -215 108 -30 0 -33 -3 -33
-30z"/>
<path d="M1065 3868 c4 -34 18 -94 31 -133 23 -66 23 -71 6 -83 -13 -10 -17
-28 -17 -86 0 -73 0 -73 -23 -65 -38 15 -42 11 -42 -34 0 -46 13 -67 43 -67
14 0 17 5 12 20 -7 22 9 27 35 10 9 -5 19 -5 27 2 15 12 17 64 3 73 -5 3 -10
23 -10 45 0 51 19 46 90 -27 54 -55 121 -104 212 -156 58 -34 81 -35 76 -5 -2
17 -26 36 -92 72 -122 68 -193 139 -243 246 -42 88 -61 150 -65 210 -2 28 -8
36 -27 38 -23 4 -23 3 -16 -60z"/>
<path d="M3950 3855 c-13 -14 -28 -25 -33 -25 -5 0 -24 -7 -43 -16 -41 -19
-45 -50 -13 -94 24 -32 21 -59 -9 -99 l-19 -24 -39 35 c-107 93 -204 142 -284
142 -53 1 -55 0 -58 -28 -3 -27 -3 -28 35 -22 45 8 127 -28 212 -92 54 -41
191 -187 191 -204 0 -5 20 -37 44 -71 24 -34 58 -93 76 -132 18 -38 36 -77 40
-86 18 -37 72 -255 80 -326 11 -96 38 -183 90 -289 43 -88 61 -109 85 -100 19
7 19 40 0 56 -40 33 -135 278 -135 347 -1 121 -114 464 -176 534 -8 8 -14 20
-14 25 0 11 -51 85 -86 124 -30 34 -40 70 -20 70 29 0 48 45 43 102 -2 29 -7
62 -11 73 -5 16 1 23 34 38 50 23 70 43 70 68 0 27 -32 24 -60 -6z"/>
<path d="M2855 3711 c-76 -19 -145 -76 -145 -121 0 -43 38 -41 65 3 12 19 43
43 78 61 39 19 57 34 57 47 0 20 -7 21 -55 10z"/>
<path d="M2364 3635 c-19 -19 -24 -34 -22 -58 4 -40 34 -50 47 -15 5 13 16 30
25 37 9 7 16 24 16 37 0 32 -33 32 -66 -1z"/>
<path d="M3018 3653 c-26 -6 -22 -30 15 -98 18 -33 52 -96 76 -139 67 -123
161 -392 161 -461 0 -18 5 -25 20 -25 11 0 23 6 26 14 13 33 -57 285 -116 421
-18 43 -160 297 -164 294 0 -1 -9 -3 -18 -6z"/>
<path d="M1919 3624 c-30 -9 -74 -38 -125 -82 -131 -112 -180 -209 -118 -233
25 -9 25 -11 11 -27 -28 -31 -78 -152 -72 -173 13 -39 41 -21 69 44 35 82 156
213 270 291 47 33 87 65 91 73 7 20 -2 33 -24 33 -28 0 -188 -116 -249 -181
-57 -60 -72 -70 -72 -46 0 42 92 147 189 216 67 47 112 56 165 33 24 -11 47
-25 50 -31 4 -6 16 -11 27 -11 25 0 26 41 1 63 -50 45 -130 57 -213 31z"/>
<path d="M3338 3403 c-34 -8 -18 -44 53 -116 90 -91 204 -242 249 -329 23 -45
41 -68 53 -68 25 0 22 57 -5 108 -83 151 -311 414 -350 405z"/>
<path d="M2022 3313 c-58 -59 -77 -91 -111 -190 -37 -109 -41 -163 -11 -163
11 0 22 6 24 13 2 6 8 33 14 59 26 107 123 268 162 268 15 0 20 7 20 25 0 21
-5 25 -31 25 -22 0 -41 -10 -67 -37z"/>
<path d="M2904 3266 c-3 -8 -1 -40 5 -72 17 -102 18 -434 1 -434 -5 0 -10 6
-10 14 0 22 -24 26 -143 25 -134 -2 -171 -8 -175 -32 -3 -14 4 -17 39 -17 42
0 43 0 21 -16 -21 -15 -30 -48 -14 -57 4 -3 34 -1 67 4 33 5 91 11 129 14 38
3 73 8 77 11 16 9 9 -98 -12 -196 -11 -52 -23 -107 -26 -122 -4 -23 -2 -28 15
-28 25 0 45 49 69 175 19 100 24 441 9 638 -7 96 -10 107 -27 107 -11 0 -22
-6 -25 -14z"/>
<path d="M1420 3215 c-18 -22 -8 -50 19 -50 28 0 47 25 38 49 -8 20 -40 21
-57 1z"/>
<path d="M3117 3103 c-16 -15 -5 -53 28 -96 34 -45 97 -165 108 -207 6 -24 35
-27 44 -4 8 21 -14 86 -51 154 -16 30 -34 64 -40 75 -35 64 -71 96 -89 78z"/>
<path d="M980 3085 c0 -25 38 -55 70 -55 46 0 38 27 -16 50 -55 24 -54 24 -54
5z"/>
<path d="M1253 3052 c-18 -16 -33 -38 -33 -50 0 -24 35 -39 54 -23 11 9 15 5
19 -18 5 -24 14 -32 46 -42 45 -13 89 -6 98 17 11 28 -17 41 -72 32 -17 -3
-21 4 -25 52 -5 50 -7 55 -30 57 -16 2 -37 -8 -57 -25z"/>
<path d="M1029 2961 c-49 -39 -140 -217 -170 -330 -25 -97 -26 -105 -37 -231
-13 -151 -13 -161 -2 -310 14 -173 29 -234 60 -238 20 -3 22 -1 15 20 -12 37
-14 109 -4 168 35 195 49 245 64 229 1 -2 8 -53 14 -112 22 -206 91 -385 186
-481 31 -31 59 -56 64 -56 5 0 11 9 14 21 4 16 11 19 26 14 23 -7 26 1 11 39
-12 33 -6 33 39 -2 20 -16 53 -38 74 -50 72 -42 167 -50 167 -15 0 11 5 13 18
8 9 -4 35 -12 57 -18 22 -5 50 -14 62 -20 11 -5 26 -6 32 -3 18 11 13 36 -7
36 -10 0 -27 7 -38 15 -18 14 -18 14 8 15 24 0 27 4 33 50 6 43 4 53 -13 68
-46 40 -127 247 -102 262 6 4 17 29 25 56 37 129 76 249 85 258 5 5 11 -7 16
-30 19 -108 67 -183 118 -185 11 0 -6 -7 -39 -15 -53 -12 -144 -42 -154 -50
-4 -4 30 -96 42 -111 15 -20 38 -15 61 11 18 21 160 86 187 86 5 0 9 -31 9
-70 0 -79 21 -144 57 -177 19 -19 36 -23 83 -23 32 0 62 5 65 11 4 5 17 14 30
19 14 5 24 20 29 40 10 55 7 107 -9 120 -16 13 -45 67 -45 82 0 15 -41 47 -87
69 -46 22 -106 27 -165 14 -46 -9 -47 -4 -31 140 21 188 22 195 52 201 14 3
38 12 53 20 37 20 53 18 66 -8 27 -52 110 -172 186 -268 109 -138 189 -200
257 -200 28 0 31 3 27 24 -5 23 -3 24 26 19 17 -3 38 -9 47 -14 25 -13 71 -21
111 -19 30 1 38 -3 44 -22 3 -13 15 -35 26 -50 16 -24 24 -26 61 -23 143 15
157 28 157 151 0 46 2 84 5 84 3 0 18 -9 33 -19 16 -11 40 -18 60 -17 17 1 46
3 62 4 23 2 30 7 30 22 0 26 16 25 54 -3 17 -13 39 -26 48 -30 14 -5 16 -12 8
-34 -5 -15 -11 -48 -15 -73 -7 -54 -43 -97 -104 -125 -40 -18 -44 -18 -52 -2
-6 9 -19 17 -29 17 -22 0 -27 -37 -10 -70 21 -38 179 -67 249 -45 21 6 20 5
-3 -20 -31 -33 -70 -116 -110 -231 -27 -77 -34 -89 -47 -81 -12 8 -25 4 -50
-15 -75 -57 -324 -182 -393 -198 -23 -5 -64 -10 -91 -10 -28 0 -55 -4 -61 -10
-12 -12 -146 -14 -214 -3 -30 6 -80 19 -110 30 -30 11 -80 28 -110 38 -30 10
-62 24 -71 31 -8 8 -18 14 -22 14 -16 0 -131 87 -157 119 -17 20 -38 46 -48
58 -11 13 -30 50 -43 83 -16 42 -29 60 -41 60 -22 0 -22 -4 -4 -61 8 -24 17
-56 20 -71 8 -35 119 -148 195 -196 32 -22 67 -46 76 -55 9 -9 35 -21 58 -28
67 -17 124 -38 106 -39 -9 0 -22 -7 -29 -16 -15 -17 -76 -12 -119 9 -19 9 -25
9 -28 0 -3 -7 -12 -22 -22 -34 -16 -20 -17 -20 -54 34 -36 53 -157 178 -177
185 -6 2 -10 -7 -10 -20 0 -14 17 -41 44 -68 39 -41 149 -195 158 -222 7 -21
35 0 64 46 26 41 32 45 59 40 39 -8 38 -7 30 -43 -4 -21 -21 -41 -50 -62 -53
-38 -68 -79 -29 -79 7 0 26 14 42 30 17 17 34 30 39 29 4 0 28 -27 53 -59 44
-58 72 -72 78 -38 2 9 -17 44 -42 78 -25 34 -46 68 -46 76 0 7 10 25 23 39 24
29 67 37 143 28 41 -5 42 -6 80 -89 27 -58 44 -84 57 -84 21 0 22 34 2 70 -17
30 -19 60 -4 60 6 0 26 -12 45 -26 18 -14 41 -24 49 -20 17 6 20 22 5 31 -17
10 -11 25 9 25 10 0 35 7 56 16 20 8 39 13 42 10 2 -2 -6 -22 -19 -45 -18 -31
-20 -43 -11 -52 14 -14 57 28 113 110 28 42 49 58 107 87 84 41 117 42 121 2
4 -36 -14 -68 -39 -68 -12 0 -69 -37 -128 -83 -114 -89 -235 -166 -289 -185
-39 -13 -67 -3 -77 28 -3 11 -12 20 -20 20 -19 0 -27 -33 -16 -63 12 -32 65
-45 112 -28 18 6 63 11 101 11 l69 0 -6 -47 c-3 -27 -10 -124 -15 -218 -6 -93
-15 -208 -20 -255 -14 -118 -20 -324 -10 -340 4 -7 15 -10 24 -7 14 5 16 26
16 129 1 136 1 152 20 383 14 179 15 189 31 180 6 -4 8 -27 4 -58 -3 -29 -8
-119 -10 -202 -9 -267 -18 -370 -41 -443 -6 -21 -4 -23 17 -20 22 3 25 11 41
118 11 72 21 234 28 434 11 340 15 369 60 374 37 4 208 51 265 72 28 11 69 24
93 30 25 6 42 17 42 25 0 9 6 12 15 9 8 -4 15 -12 15 -19 0 -7 15 -18 33 -26
134 -54 376 -217 478 -321 36 -38 71 -68 77 -68 7 0 12 11 12 24 0 29 -104
136 -190 197 -30 21 -68 50 -85 63 -50 40 -251 146 -278 146 -10 0 -22 11 -27
24 -5 14 -18 30 -30 36 -11 6 -20 17 -20 25 0 8 -8 20 -19 27 -28 20 -33 52
-21 135 24 157 110 385 166 444 18 19 24 33 19 48 -5 16 0 23 22 33 46 20 145
89 191 132 29 29 42 49 42 68 0 35 -31 38 -49 5 -20 -35 -152 -137 -214 -165
-66 -29 -177 -37 -177 -12 0 4 22 18 50 31 27 13 49 29 50 36 0 7 13 27 28 45
40 47 95 127 119 173 34 67 56 206 35 219 -18 11 -31 -12 -42 -74 -12 -64 -51
-151 -90 -200 l-20 -25 6 35 c3 19 12 67 19 105 34 178 28 289 -13 266 -11 -6
-26 -4 -46 6 l-29 15 24 19 c13 10 27 19 32 19 4 0 7 11 7 25 0 18 -5 25 -20
25 -13 0 -20 7 -20 18 0 19 -19 42 -55 67 -19 13 -19 14 13 25 24 9 32 18 32
36 0 21 -5 24 -34 24 -19 0 -55 -9 -80 -19 -36 -16 -52 -18 -81 -10 -20 6 -50
9 -68 7 -27 -2 -33 -8 -35 -30 -3 -26 -1 -28 34 -28 32 0 35 -2 23 -16 -7 -9
-23 -20 -36 -25 -40 -15 -32 -83 23 -197 25 -54 55 -107 67 -119 11 -13 17
-26 14 -29 -4 -4 -55 -8 -114 -10 -60 -1 -136 -5 -170 -9 -49 -5 -71 -3 -106
13 -57 25 -167 135 -167 166 0 14 -5 26 -10 28 -13 4 -40 104 -48 182 -6 54
-10 61 -31 64 -24 4 -24 4 -17 -69 7 -81 27 -166 57 -249 29 -79 115 -255 134
-274 9 -9 15 -20 13 -25 -5 -12 -140 35 -154 54 -19 25 -48 15 -52 -18 -3 -23
2 -30 30 -42 18 -8 27 -14 20 -15 -45 -1 -148 89 -239 209 -32 42 -60 78 -64
81 -15 13 -129 206 -168 285 -64 130 -68 137 -75 168 -5 20 -12 27 -31 27 -29
0 -31 -10 -9 -70 15 -41 15 -49 0 -100 -16 -54 -18 -56 -87 -91 l-71 -37 8 52
c13 85 11 110 -8 114 -31 6 -47 -71 -51 -245 -1 -28 -6 -43 -14 -43 -7 0 -13
-7 -13 -15 0 -8 -7 -29 -14 -47 -8 -18 -24 -64 -36 -103 -26 -89 -43 -116 -37
-60 2 22 7 48 11 57 5 12 1 20 -15 28 -36 20 -49 -9 -49 -110 0 -141 63 -355
126 -429 33 -38 34 -41 14 -41 -59 0 -170 119 -229 244 -71 152 -95 320 -76
537 6 77 5 87 -11 93 -9 4 -22 2 -27 -3 -18 -18 -19 -272 -2 -388 37 -246 142
-435 285 -514 25 -14 28 -18 10 -13 -40 11 -152 87 -202 138 -25 25 -53 46
-62 46 -29 0 -17 -32 32 -79 42 -42 64 -60 127 -106 19 -14 18 -14 -17 -15
-63 0 -142 45 -211 121 -42 46 -69 69 -85 69 -25 0 -25 -4 8 -112 10 -32 14
-58 10 -58 -8 0 -51 49 -85 97 -70 100 -135 313 -135 449 0 51 -4 64 -20 75
-21 14 -21 14 6 67 14 29 23 59 20 67 -8 23 -36 30 -52 13 -17 -17 -83 -202
-85 -238 -1 -20 -3 -18 -9 10 -10 41 12 256 34 340 40 153 100 273 179 357 16
17 27 38 24 46 -9 23 -45 27 -68 8z m938 -337 c-9 -9 -28 6 -21 18 4 6 10 6
17 -1 6 -6 8 -13 4 -17z m1216 -9 c18 -9 40 -22 50 -30 18 -13 17 -15 -14 -43
-31 -28 -36 -29 -103 -24 -39 2 -75 9 -81 14 -12 11 76 98 100 98 10 0 31 -7
48 -15z m-1235 -52 c-2 -9 -8 -18 -15 -20 -7 -3 -9 3 -6 16 6 25 26 28 21 4z
m-83 -32 c-3 -6 -14 -11 -23 -11 -15 1 -15 2 2 15 21 16 32 13 21 -4z m1255
-90 c-16 -31 -26 -32 -38 -6 -11 24 -10 25 19 25 26 0 29 -2 19 -19z m-1275
-10 c-5 -17 -25 -171 -25 -198 0 -7 -4 -13 -9 -13 -13 0 -40 85 -47 146 -6 52
-6 52 25 59 17 3 33 11 36 16 11 17 26 9 20 -10z m1435 -25 c8 -7 23 -16 33
-20 16 -5 18 -13 13 -59 -14 -111 -18 -127 -32 -127 -15 0 -96 69 -133 113
-22 27 -22 28 -6 55 38 59 55 71 84 61 14 -6 33 -16 41 -23z m-617 -160 c9 -7
17 -25 17 -39 0 -30 16 -43 47 -38 20 2 22 -1 14 -21 -4 -13 -11 -22 -15 -20
-3 1 -10 2 -15 2 -8 0 -19 16 -75 103 -20 30 -6 38 27 13z m274 -70 c0 0 3
-10 5 -21 4 -26 -28 -32 -53 -9 -31 28 -25 47 14 39 17 -4 33 -8 34 -9z m-847
-146 c0 -5 6 -10 14 -10 7 0 19 -7 27 -16 10 -13 10 -17 -2 -25 -21 -13 -28
-11 -54 16 -30 29 -32 45 -5 45 11 0 20 -4 20 -10z m1080 -612 c0 -15 -45 -38
-74 -38 -13 0 -5 8 24 24 25 13 46 24 48 25 1 0 2 -5 2 -11z m-120 -83 c0 -13
28 -10 88 9 22 7 22 6 21 -71 -1 -89 7 -129 27 -137 8 -3 14 -15 14 -26 0 -11
5 -20 10 -20 6 0 10 -4 10 -10 0 -5 -8 -10 -18 -10 -10 0 -45 -8 -78 -19 -276
-87 -359 -106 -386 -87 -18 13 -15 16 34 52 29 21 74 57 100 80 38 33 53 40
74 36 22 -4 32 1 50 23 17 22 27 26 48 21 19 -5 26 -13 26 -31 0 -27 18 -32
51 -15 29 16 24 48 -12 68 -65 35 -76 49 -82 99 -3 26 -3 51 0 56 6 11 23 -2
23 -18z m-291 -452 c0 -16 -4 -46 -8 -68 -8 -37 -9 -35 -10 28 -1 39 3 67 9
67 6 0 10 -12 9 -27z"/>
<path d="M3744 2778 c3 -35 11 -103 16 -153 17 -157 12 -270 -15 -381 -13 -56
-33 -118 -45 -138 -25 -46 -26 -76 -2 -76 30 0 77 103 100 220 19 96 20 121
12 290 -5 102 -14 209 -20 239 -5 29 -10 55 -10 57 0 2 -10 4 -21 4 -21 0 -21
-3 -15 -62z"/>
<path d="M4041 2473 c-30 -119 -54 -170 -158 -323 -124 -186 -123 -183 -123
-201 0 -9 7 -19 15 -23 11 -4 13 -11 6 -29 -12 -32 -101 -218 -163 -342 -69
-137 -83 -150 -54 -49 8 27 16 65 18 84 3 30 0 35 -17 32 -31 -6 -185 -163
-185 -189 0 -35 20 -27 79 32 30 30 57 52 59 50 6 -6 -36 -130 -59 -177 -11
-21 -19 -44 -19 -53 0 -29 41 -15 83 29 45 45 60 73 191 330 45 88 87 161 94
164 15 5 9 -64 -19 -213 -23 -122 -23 -125 -1 -125 17 0 69 98 107 200 19 51
57 219 75 328 11 65 17 78 54 116 41 43 56 68 120 209 34 76 36 78 58 64 35
-21 105 -40 122 -34 32 12 17 37 -29 48 -25 6 -65 27 -90 45 -24 19 -53 34
-64 34 -18 0 -20 -6 -19 -42 2 -42 -47 -168 -94 -243 l-19 -30 7 50 c4 27 17
73 30 102 26 58 54 169 54 214 0 22 -5 29 -19 29 -15 0 -23 -16 -40 -87z m-96
-360 c-4 -16 -15 -80 -25 -143 -19 -120 -54 -262 -71 -289 -7 -12 -8 -5 -5 24
15 110 27 248 25 283 -2 31 5 51 35 96 41 62 52 69 41 29z"/>
<path d="M3130 2045 c0 -20 4 -26 18 -23 9 2 17 12 17 23 0 11 -8 21 -17 23
-14 3 -18 -3 -18 -23z"/>
<path d="M3058 1992 c-20 -2 -28 -9 -28 -23 0 -15 7 -19 30 -19 19 0 33 6 37
16 8 21 -6 30 -39 26z"/>
<path d="M1825 1860 c-8 -14 13 -40 32 -40 20 0 12 44 -9 48 -9 2 -19 -2 -23
-8z"/>
<path d="M1892 1798 c5 -34 38 -37 38 -4 0 20 -5 26 -21 26 -15 0 -20 -5 -17
-22z"/>
<path d="M2696 1669 l-28 -41 -22 21 c-31 29 -162 30 -238 1 -29 -11 -61 -20
-70 -20 -27 0 -22 -38 10 -75 15 -18 40 -49 55 -69 55 -71 78 -33 27 43 -34
50 -37 61 -15 61 8 0 15 4 15 9 0 12 58 25 105 22 22 -2 55 -12 73 -23 19 -12
43 -18 57 -15 39 7 24 -40 -17 -56 -10 -3 -18 -16 -18 -27 0 -25 36 -27 66 -2
21 17 74 136 74 165 0 59 -38 61 -74 6z"/>
<path d="M1417 1563 c5 -16 8 -56 8 -90 0 -50 -6 -73 -30 -117 -16 -31 -34
-56 -40 -56 -5 0 -16 -12 -22 -27 -19 -40 -1 -56 59 -51 66 7 123 48 151 110
12 26 24 48 27 48 3 -1 19 -13 36 -29 22 -20 40 -53 58 -109 15 -44 40 -99 56
-121 51 -69 135 -113 156 -79 4 6 0 16 -9 23 -10 7 -17 21 -17 31 -1 47 -31
160 -47 172 -39 29 -43 5 -13 -89 11 -34 19 -67 17 -73 -6 -18 -57 41 -78 91
-24 56 -59 174 -59 201 0 11 -9 27 -20 37 -20 18 -20 17 -20 -11 l0 -28 -21
21 c-12 11 -24 36 -28 54 -5 24 -13 35 -28 37 -19 3 -22 -3 -28 -60 -7 -67
-39 -127 -83 -156 l-24 -16 17 40 c9 21 21 49 26 62 12 31 12 154 -1 186 -6
16 -17 26 -30 26 -17 0 -19 -4 -13 -27z"/>
<path d="M3324 1513 c-43 -47 -104 -167 -104 -207 0 -29 4 -36 20 -36 12 0 20
7 20 17 0 30 70 159 105 193 19 19 35 40 35 47 0 23 -50 14 -76 -14z"/>
<path d="M1808 949 c-14 -21 -53 -42 -126 -64 -49 -15 -92 -41 -92 -55 0 -17
42 -11 115 16 104 38 118 42 140 34 11 -4 26 -3 33 3 16 12 112 2 216 -24 43
-10 85 -19 92 -19 20 0 17 28 -4 39 -16 8 -147 35 -274 56 -24 4 -38 11 -38
20 0 23 -48 18 -62 -6z"/>
<path d="M2267 868 c-3 -35 -6 -123 -7 -197 0 -74 -2 -137 -5 -140 -2 -4 -6
-47 -9 -96 -4 -50 -11 -139 -16 -200 -14 -153 -14 -155 10 -155 12 0 25 10 31
23 7 17 8 13 4 -21 -5 -40 -4 -42 20 -42 14 0 25 3 26 8 0 4 2 72 4 152 2 80
9 219 14 310 6 91 11 211 11 268 0 94 -1 102 -19 102 -15 0 -21 -8 -24 -32 -2
-20 -4 -11 -5 25 -2 41 -6 57 -16 57 -10 0 -15 -19 -19 -62z m40 -140 c-3 -8
-6 -5 -6 6 -1 11 2 17 5 13 3 -3 4 -12 1 -19z m-20 -385 c-3 -10 -5 -4 -5 12
0 17 2 24 5 18 2 -7 2 -21 0 -30z m-10 -165 c-2 -13 -4 -5 -4 17 -1 22 1 32 4
23 2 -10 2 -28 0 -40z"/>
<path d="M1475 769 c-102 -71 -132 -96 -236 -195 -217 -207 -421 -500 -363
-521 6 -2 37 38 69 89 90 145 137 202 299 363 140 140 246 227 310 256 14 7
26 20 26 31 0 30 -42 21 -105 -23z"/>
<path d="M3945 567 c-4 -15 7 -47 33 -98 45 -86 82 -206 82 -267 0 -35 3 -42
19 -42 39 0 30 113 -20 250 -19 53 -90 180 -100 180 -5 0 -11 -10 -14 -23z"/>
</g>
</svg>
